<svg id="Layer_1" data-name="Layer 1" xmlns="http://www.w3.org/2000/svg" xmlns:xlink="http://www.w3.org/1999/xlink" viewBox="0 0 100 198.71"><defs><style>.cls-1{fill:#da291c;}.cls-2{fill:url(#New_Gradient_Swatch_3);}.cls-3{fill:url(#New_Gradient_Swatch_3-2);}.cls-4{fill:#fff;}</style><linearGradient id="New_Gradient_Swatch_3" x1="0.41" y1="149.13" x2="99.59" y2="149.13" gradientUnits="userSpaceOnUse"><stop offset="0" stop-color="#a6a6a6"/><stop offset="0.53" stop-color="#e5e5e5"/><stop offset="0.64" stop-color="#dcdcdc"/><stop offset="0.82" stop-color="#c4c4c4"/><stop offset="1" stop-color="#a6a6a6"/></linearGradient><linearGradient id="New_Gradient_Swatch_3-2" x1="4.25" y1="78.67" x2="95.98" y2="78.67" xlink:href="#New_Gradient_Swatch_3"/></defs><path d="M33.5,152.68v5.77H30.71v-2.16a1.27,1.27,0,0,0-.16-.77.81.81,0,0,0-.62-.23V162a1.55,1.55,0,0,0,.15.79,1,1,0,0,0,.53.38v2.26H25.44v-2.26a.92.92,0,0,0,.52-.37,1.54,1.54,0,0,0,.15-.8v-6.68a.79.79,0,0,0-.62.23,1.27,1.27,0,0,0-.16.77v2.16H22.55v-5.77Z"/><path d="M38.85,162a2.21,2.21,0,0,0,.1.84.66.66,0,0,0,.38.33v2.26H34.45v-2.26a.78.78,0,0,0,.36-.38,2.18,2.18,0,0,0,.1-.79v-5.9a2.12,2.12,0,0,0-.1-.78.78.78,0,0,0-.36-.38v-2.23H40a5.7,5.7,0,0,1,3.46.79,3.17,3.17,0,0,1,1,2.64A3.4,3.4,0,0,1,44,158a2.38,2.38,0,0,1-1.4,1,2.21,2.21,0,0,1,1.25.72,3.44,3.44,0,0,1,.37,1.81s0,.08,0,.14c0,.82.17,1.31.47,1.46v2.26H40.47a13,13,0,0,1-.23-2.74c0-.24,0-.42,0-.54a2.61,2.61,0,0,0-.26-1.39,1.11,1.11,0,0,0-.9-.3h-.22Zm0-4.05h.4a1.24,1.24,0,0,0,.94-.29,1.59,1.59,0,0,0,.25-1,1.38,1.38,0,0,0-.29-1,1.64,1.64,0,0,0-1.1-.27h-.2Z"/><path d="M45.68,165.4v-2.26a.67.67,0,0,0,.32-.34,2.4,2.4,0,0,0,.23-.7l1.71-9.42h5.61l1.94,9.42a2.18,2.18,0,0,0,.26.7.67.67,0,0,0,.35.34v2.26h-5v-2.26a.58.58,0,0,0,.31-.25.78.78,0,0,0,.12-.44.94.94,0,0,0,0-.16,1.06,1.06,0,0,0,0-.18H49.56s0,.11,0,.19a1.06,1.06,0,0,0,0,.2.64.64,0,0,0,.14.44.67.67,0,0,0,.42.2v2.26Zm4.18-5.55h1.32l-.72-4.51Z"/><path d="M57,165.4v-2.26a.78.78,0,0,0,.36-.38,2.18,2.18,0,0,0,.1-.79v-5.9a2.12,2.12,0,0,0-.1-.78.78.78,0,0,0-.36-.38v-2.23H61.9c2,0,3.32.31,4,.93s1,1.79,1,3.52V161c0,1.73-.35,2.9-1,3.52s-2,.93-4,.93Zm4.43-2.78h.46a1.06,1.06,0,0,0,.84-.27,1.68,1.68,0,0,0,.22-1v-4.66a1.43,1.43,0,0,0-.22-1,1.11,1.11,0,0,0-.84-.24h-.46Z"/><path d="M67.9,165.4v-2.26a.78.78,0,0,0,.37-.39,2.19,2.19,0,0,0,.1-.78v-5.9a2.09,2.09,0,0,0-.1-.77.74.74,0,0,0-.37-.39v-2.23h9.51v4.21H73.77v-.36a1.38,1.38,0,0,0-.23-.92,1.26,1.26,0,0,0-.89-.24h-.34v2.26h2.52v2.46H72.31v2.57h.33a1.07,1.07,0,0,0,.88-.32,1.86,1.86,0,0,0,.26-1.13,1.94,1.94,0,0,0,0-.27,1.15,1.15,0,0,0,0-.19h3.64v4.64Z"/><path class="cls-1" d="M62.2,119.1a41.37,41.37,0,0,0-5.37,13,46.73,46.73,0,0,0-1.11,6.75q-.09-1.42-.09-2.91c0-7.89,1.81-15.07,5.36-20a19.56,19.56,0,0,0-10.46-3.09H49.46A19.56,19.56,0,0,0,39,115.93c3.55,4.91,5.35,12.09,5.35,20,0,1,0,2-.08,2.91a45.45,45.45,0,0,0-1.12-6.75,41.36,41.36,0,0,0-5.36-13c-6.3,4.36-10,10.22-10,20.3,0,.13,0,.27,0,.4l3.95,3.85s6.81-2.75,18.21-2.41h0c11.4-.34,18.21,2.41,18.21,2.41l4-3.85v-.4C72.17,129.32,68.5,123.46,62.2,119.1Z"/><path class="cls-1" d="M68.65,145.25s-7-2.82-18.64-2.47h0c-11.67-.35-18.64,2.47-18.64,2.47l-4-3.86s-1.68-.35-2.05,0,0,1,0,1.55v.45l4.4,4.29s7.58,2.17,20.28,2.55h0c12.7-.38,20.28-2.55,20.28-2.55l4.4-4.29v-.45c0-.53.33-1.19,0-1.55s-2,0-2,0Z"/><path d="M29.65,182.41l-1.15-1a3.4,3.4,0,0,1-2.18.68,3.4,3.4,0,0,1-2.74-1.19c-1-1.19-1-3.25-1-6s0-4.84,1-6a3.39,3.39,0,0,1,2.74-1.18,3.35,3.35,0,0,1,2.73,1.18c1.05,1.19,1,3.26,1,6,0,2.32,0,4.06-.57,5.29l1.17,1Zm-2.26-12.19a1.19,1.19,0,0,0-1.07-.53,1.13,1.13,0,0,0-1.05.53c-.44.68-.5,2.08-.5,4.68s.06,4,.5,4.68a1.11,1.11,0,0,0,1.05.53.94.94,0,0,0,.47-.09l-.73-.62,1-1.23.58.48a19.78,19.78,0,0,0,.19-3.75C27.86,172.3,27.82,170.9,27.39,170.22Z"/><path d="M38.19,181.09a3.54,3.54,0,0,1-2.62,1,3.59,3.59,0,0,1-2.64-1,3.68,3.68,0,0,1-1-2.6V167.84h2.22v10.77a1.35,1.35,0,0,0,1.39,1.5,1.34,1.34,0,0,0,1.37-1.5V167.84h2.22v10.65A3.68,3.68,0,0,1,38.19,181.09Z"/><path d="M47.06,182l-.57-2.8H43.22l-.56,2.8H40.32l3.47-14.12H46L49.38,182Zm-2.2-10.71-1.2,5.91h2.41Z"/><path d="M50.69,182V167.84h2.22V180h3.7v2Z"/><path d="M58.28,182V167.84H60.5V182Z"/><path d="M66.68,169.85V182H64.46V169.85H62.1v-2h7v2Z"/><path d="M74.43,176.43V182H72.21v-5.53l-2.74-8.59h2.46l1.39,5.59,1.4-5.59h2.44Z"/><path class="cls-2" d="M89,117.6l-7.48-7.48-5.8,3.48a43.66,43.66,0,0,0-7.83-4.54l.12-6.78L57.82,99.55l-3.28,5.91a44.34,44.34,0,0,0-9.07,0l-3.28-5.91L32,102.27l.11,6.74a43.3,43.3,0,0,0-7.86,4.54l-5.82-3.49-7.47,7.47,3.49,5.81a43.78,43.78,0,0,0-4.55,7.87l-6.72-.1L.42,141.32l5.9,3.28a43.64,43.64,0,0,0,0,9.07L.41,157l2.72,10.23,6.81-.1a42.81,42.81,0,0,0,4.5,7.75l-3.61,6,7.47,7.47,6-3.62a43.54,43.54,0,0,0,7.75,4.46L32,196l10.2,2.73,3.33-6a43.37,43.37,0,0,0,9,0l3.33,6L68,196l-.13-6.84a43.18,43.18,0,0,0,7.79-4.51l5.82,3.48L89,180.62l-3.48-5.82A43.64,43.64,0,0,0,90,167l6.87.13L99.59,157l-6-3.34a44.71,44.71,0,0,0,0-9l6-3.33-2.74-10.21-6.83.12a43.63,43.63,0,0,0-4.5-7.81Z"/><path class="cls-1" d="M62.21,119.1a41.14,41.14,0,0,0-5.37,13,45.39,45.39,0,0,0-1.11,6.75q-.09-1.42-.09-2.91c0-7.89,1.8-15.07,5.35-20a19.53,19.53,0,0,0-10.45-3.09H49.47A19.56,19.56,0,0,0,39,115.93c3.55,4.91,5.35,12.09,5.35,20,0,1,0,2-.08,2.91a46.79,46.79,0,0,0-1.12-6.75,41.36,41.36,0,0,0-5.36-13c-6.31,4.36-10,10.22-10,20.3v.4l3.95,3.85s6.81-2.75,18.21-2.41h0c11.4-.34,18.21,2.41,18.21,2.41l4-3.85v-.4C72.18,129.32,68.51,123.46,62.21,119.1Z"/><path class="cls-1" d="M68.66,145.25s-7-2.82-18.64-2.47h0c-11.67-.35-18.63,2.47-18.63,2.47l-4-3.86s-1.68-.35-2.05,0,0,1,0,1.55v.45l4.4,4.29s7.58,2.17,20.27,2.55h0c12.69-.38,20.27-2.55,20.27-2.55l4.4-4.29v-.45c0-.53.34-1.19,0-1.55s-2,0-2,0Z"/><path d="M33.52,152.68v5.77H30.73v-2.16a1.19,1.19,0,0,0-.17-.77.77.77,0,0,0-.61-.23V162a1.55,1.55,0,0,0,.15.79,1,1,0,0,0,.53.38v2.26H25.46v-2.26a.92.92,0,0,0,.52-.37,1.54,1.54,0,0,0,.15-.8v-6.68a.79.79,0,0,0-.62.23,1.26,1.26,0,0,0-.17.77v2.16H22.57v-5.77Z"/><path d="M38.86,162a2.16,2.16,0,0,0,.11.84.63.63,0,0,0,.38.33v2.26H34.47v-2.26a.78.78,0,0,0,.36-.38,2.18,2.18,0,0,0,.1-.79v-5.9a2.12,2.12,0,0,0-.1-.78.78.78,0,0,0-.36-.38v-2.23H40a5.65,5.65,0,0,1,3.45.79,3.14,3.14,0,0,1,1,2.64A3.4,3.4,0,0,1,44,158a2.38,2.38,0,0,1-1.41,1,2.14,2.14,0,0,1,1.25.72,3.42,3.42,0,0,1,.38,1.81v.14c0,.82.18,1.31.48,1.46v2.26H40.49a13,13,0,0,1-.23-2.74c0-.24,0-.42,0-.54a2.61,2.61,0,0,0-.26-1.39,1.11,1.11,0,0,0-.9-.3h-.23Zm0-4.05h.4a1.23,1.23,0,0,0,.94-.29,1.59,1.59,0,0,0,.26-1,1.38,1.38,0,0,0-.29-1,1.64,1.64,0,0,0-1.1-.27h-.21Z"/><path d="M45.7,165.4v-2.26a.67.67,0,0,0,.32-.34,2.74,2.74,0,0,0,.23-.7L48,152.68h5.61l1.94,9.42a2.18,2.18,0,0,0,.26.7.67.67,0,0,0,.35.34v2.26h-5v-2.26a.58.58,0,0,0,.31-.25.78.78,0,0,0,.12-.44.94.94,0,0,0,0-.16l-.05-.18H49.58a.89.89,0,0,1,0,.19c0,.09,0,.16,0,.2a.58.58,0,0,0,.56.64v2.26Zm4.18-5.55H51.2l-.72-4.51Z"/><path d="M57.06,165.4v-2.26a.78.78,0,0,0,.36-.38,2.43,2.43,0,0,0,.1-.79v-5.9a2.36,2.36,0,0,0-.1-.78.78.78,0,0,0-.36-.38v-2.23h4.85c2,0,3.32.31,4,.93s1,1.79,1,3.52V161c0,1.73-.35,2.9-1,3.52s-2,.93-4,.93Zm4.43-2.78H62a1.06,1.06,0,0,0,.84-.27,1.75,1.75,0,0,0,.22-1v-4.66a1.43,1.43,0,0,0-.22-1,1.12,1.12,0,0,0-.84-.24h-.46Z"/><path d="M67.92,165.4v-2.26a.82.82,0,0,0,.37-.39,2.19,2.19,0,0,0,.1-.78v-5.9a2.09,2.09,0,0,0-.1-.77.78.78,0,0,0-.37-.39v-2.23h9.51v4.21H73.79v-.36a1.32,1.32,0,0,0-.24-.92,1.22,1.22,0,0,0-.88-.24h-.34v2.26h2.52v2.46H72.33v2.57h.34a1.07,1.07,0,0,0,.88-.32,1.86,1.86,0,0,0,.25-1.13V161c0-.07,0-.13,0-.19h3.64v4.64Z"/><path d="M29.67,182.41l-1.15-1a3.4,3.4,0,0,1-2.18.68,3.4,3.4,0,0,1-2.74-1.19c-1.05-1.19-1-3.25-1-6s0-4.84,1-6a3.39,3.39,0,0,1,2.74-1.18,3.37,3.37,0,0,1,2.73,1.18c1.05,1.19,1,3.26,1,6,0,2.32,0,4.06-.57,5.29l1.17,1Zm-2.26-12.19a1.19,1.19,0,0,0-1.07-.53,1.13,1.13,0,0,0-1.05.53c-.44.68-.5,2.08-.5,4.68s.06,4,.5,4.68a1.11,1.11,0,0,0,1.05.53,1,1,0,0,0,.47-.09l-.73-.62,1-1.23.57.48a18.72,18.72,0,0,0,.2-3.75C27.88,172.3,27.84,170.9,27.41,170.22Z"/><path d="M38.21,181.09a3.54,3.54,0,0,1-2.62,1,3.59,3.59,0,0,1-2.64-1,3.68,3.68,0,0,1-1-2.6V167.84H34.2v10.77a1.35,1.35,0,0,0,1.39,1.5,1.34,1.34,0,0,0,1.37-1.5V167.84h2.22v10.65A3.68,3.68,0,0,1,38.21,181.09Z"/><path d="M47.08,182l-.57-2.8H43.24l-.56,2.8H40.34l3.47-14.12H46L49.4,182Zm-2.2-10.71-1.21,5.91h2.42Z"/><path d="M50.71,182V167.84h2.22V180h3.7v2Z"/><path d="M58.29,182V167.84h2.22V182Z"/><path d="M66.7,169.85V182H64.48V169.85H62.12v-2h7v2Z"/><path d="M74.45,176.43V182H72.23v-5.53l-2.74-8.59H72l1.39,5.59,1.4-5.59h2.44Z"/><polygon class="cls-3" points="16.34 86.99 83.88 86.99 95.98 70.35 4.25 70.35 16.34 86.99"/><path class="cls-1" d="M21.6,87l-1,3.55,9.15,5.27,4.75-4.92a43.72,43.72,0,0,0,8.7,2.32l1.65,6.57H55.41l1.65-6.57a44.22,44.22,0,0,0,8.68-2.32l4.76,5,9.15-5.29-1-3.56Z"/><path class="cls-1" d="M100,55.25V44.68L93.44,43a44,44,0,0,0-2.32-8.75L96,29.58l-5.28-9.15L84.2,22.29a44.64,44.64,0,0,0-6.4-6.42l1.86-6.5L70.5,4.08,65.81,8.93a42.68,42.68,0,0,0-8.76-2.35L55.41,0H44.84L43.19,6.57a43.59,43.59,0,0,0-8.77,2.35L29.74,4.1,20.58,9.38l1.85,6.48A44.28,44.28,0,0,0,16,22.29L9.51,20.43,4.2,29.58l4.89,4.75A43.4,43.4,0,0,0,6.79,43L0,44.68V55.25l6.81,1.69a43.86,43.86,0,0,0,2.33,8.64L4.25,70.35H96L91.07,65.6a42.74,42.74,0,0,0,2.34-8.7Z"/><path class="cls-4" d="M33.83,60.48l2.84-5.56a2.29,2.29,0,0,1,.26-.38,1.1,1.1,0,0,1,.3-.27V51.75H32.76v1.8a6.07,6.07,0,0,1-.07,1,3.46,3.46,0,0,1-.24.81l-.58,1.34-.58-1.3a3.12,3.12,0,0,1-.2-.73A9.11,9.11,0,0,1,31,53.41V51.75H26v2.52a2.87,2.87,0,0,1,.35.34,2.1,2.1,0,0,1,.22.33l2.8,5.54v1.77a1.93,1.93,0,0,1-.15.88.9.9,0,0,1-.51.44v2.55h5.8V63.57a1,1,0,0,1-.51-.42,2.18,2.18,0,0,1-.14-.9Z"/><path class="cls-4" d="M68.13,60.51h.25a1.24,1.24,0,0,1,1,.35,2.88,2.88,0,0,1,.29,1.56c0,.14,0,.34,0,.61A13.55,13.55,0,0,0,70,66.12h4.77V63.57c-.33-.17-.52-.72-.53-1.65,0-.06,0-.11,0-.15a3.86,3.86,0,0,0-.42-2.05,2.51,2.51,0,0,0-1.42-.81A2.82,2.82,0,0,0,74,57.78a4,4,0,0,0,.51-2.16,3.58,3.58,0,0,0-1.12-3,6.47,6.47,0,0,0-3.9-.89H63.16v2.52a.83.83,0,0,1,.4.43,2.39,2.39,0,0,1,.12.89v6.66a2.48,2.48,0,0,1-.12.9.82.82,0,0,1-.4.42v2.55h5.51V63.57a.76.76,0,0,1-.43-.37,2.53,2.53,0,0,1-.11-1Zm0-5.79h.23a1.88,1.88,0,0,1,1.24.3,1.52,1.52,0,0,1,.33,1.14,1.82,1.82,0,0,1-.29,1.19,1.36,1.36,0,0,1-1.06.32h-.45Z"/><path class="cls-4" d="M55.23,66.12V63.57a.72.72,0,0,1-.48-.22.74.74,0,0,1-.15-.49,1.11,1.11,0,0,1,0-.23c0-.1,0-.17,0-.22h2.18c0,.05,0,.11.06.21a1.05,1.05,0,0,1,0,.18.88.88,0,0,1-.13.49.68.68,0,0,1-.35.28v2.55H62V63.57a.76.76,0,0,1-.4-.38,2.64,2.64,0,0,1-.29-.8l-2.2-10.64H52.81L50.87,62.39a2.8,2.8,0,0,1-.25.8.84.84,0,0,1-.37.38v2.55Zm.42-11.37.82,5.1H55Z"/><path class="cls-4" d="M49.12,66.12V60.88H45c0,.07,0,.14,0,.22v.3a2.13,2.13,0,0,1-.29,1.28,1.2,1.2,0,0,1-1,.37h-.38v-2.9H46.2V57.34H43.35V54.79h.39a1.41,1.41,0,0,1,1,.27,1.55,1.55,0,0,1,.26,1v.41h4.12V51.75H38.36v2.52a.78.78,0,0,1,.42.44,2.4,2.4,0,0,1,.12.88v6.66a2.4,2.4,0,0,1-.12.88.78.78,0,0,1-.42.44v2.55Z"/><path class="cls-4" d="M77.87,57.67V55.83l-1.67.9-.57-1.11,1.58-.91-1.58-.91.57-1.11,1.67.88V51.75H79.2v1.82l1.62-.88.63,1.11-1.63.91,1.63.91-.63,1.11-1.62-.9v1.84Z"/><path class="cls-4" d="M26,48.46v-7a11,11,0,0,1,1.37-6.08q1.36-2,5.73-4.19l2.1-1q4.57-2.13,4.57-4.35A3.05,3.05,0,0,0,39.21,24a1.7,1.7,0,0,0-1.4-.7,1.76,1.76,0,0,0-1.53.76,4,4,0,0,0-.52,2.2v2.09H26.59V19.88A19.06,19.06,0,0,1,32,17.45a23.17,23.17,0,0,1,6.26-.79c3.84,0,6.67.8,8.51,2.4s2.76,4.07,2.76,7.43a11.27,11.27,0,0,1-.58,3.89A7.86,7.86,0,0,1,47,33.26a33.31,33.31,0,0,1-6.12,3.57l-2.09,1A10.29,10.29,0,0,0,36,39.75a2.59,2.59,0,0,0-.6,1.74v.28H37a2.91,2.91,0,0,0,2.15-.59,4.09,4.09,0,0,0,.6-2.46h9.15v9.74Z"/><path class="cls-4" d="M52,45.3V36.66h9.28v2.43a4.89,4.89,0,0,0,.45,2.42,1.61,1.61,0,0,0,1.48.74,1.51,1.51,0,0,0,1.31-.63,3.09,3.09,0,0,0,.45-1.82V36a3.7,3.7,0,0,0-.47-2.09A1.65,1.65,0,0,0,63,33.26a1.71,1.71,0,0,0-1,.29,2.94,2.94,0,0,0-.79,1H52V17.07H74V25.6H64.83A2.41,2.41,0,0,0,64.22,24a2.4,2.4,0,0,0-1.63-.47H61.24v4.27a11.25,11.25,0,0,1,2.17-.63A14.24,14.24,0,0,1,65.92,27q4.74,0,6.78,2.45t2,8.4q0,6-2.6,8.56t-8.66,2.55A20.28,20.28,0,0,1,57.31,48,18.39,18.39,0,0,1,52,45.3Z"/><path d="M25.38,73.75a2.86,2.86,0,0,0-.88-.5,2.73,2.73,0,0,0-1.95,0,2.63,2.63,0,0,0-.87.51,2.59,2.59,0,0,0-.64.87,2.9,2.9,0,0,0-.23,1.21V81.5A3,3,0,0,0,21,82.72a2.51,2.51,0,0,0,.64.85,2.4,2.4,0,0,0,.87.52,2.73,2.73,0,0,0,1.95,0,2.63,2.63,0,0,0,.88-.52,2.6,2.6,0,0,0,.62-.85,2.82,2.82,0,0,0,.24-1.22V78h-3v1.63h1.22V81.5a.92.92,0,0,1-.26.72,1,1,0,0,1-.64.23,1,1,0,0,1-.64-.23.92.92,0,0,1-.26-.72V75.84a.92.92,0,0,1,.26-.72,1,1,0,0,1,.64-.23,1,1,0,0,1,.64.23.88.88,0,0,1,.26.72v.68h1.82v-.68A2.9,2.9,0,0,0,26,74.63,2.69,2.69,0,0,0,25.38,73.75Z"/><path d="M31.35,81.47a1,1,0,0,1-.23.75.83.83,0,0,1-1.15,0,1,1,0,0,1-.23-.75V73.16H27.92v8.46a2.66,2.66,0,0,0,.2,1,2.8,2.8,0,0,0,1.41,1.41,2.56,2.56,0,0,0,2,0A2.61,2.61,0,0,0,33,82.65a2.49,2.49,0,0,0,.2-1V73.16H31.35Z"/><path d="M36.49,73.16,34,84.18h1.83l.45-2.31h1.87l.45,2.31h1.83L38,73.16Zm.15,7,.6-3.08.6,3.08Z"/><path d="M46.66,78.12a4.16,4.16,0,0,0,.3-1.67c0-2.18-1-3.29-2.85-3.29H41.5v11h1.82V79.59H44l1.43,4.59h1.93l-1.68-5A2.44,2.44,0,0,0,46.66,78.12Zm-3.34-3.23H44a1.1,1.1,0,0,1,1,.36,1.29,1.29,0,0,1,.16.48,4.75,4.75,0,0,1,0,.69,4.81,4.81,0,0,1,0,.7,1.31,1.31,0,0,1-.15.46.77.77,0,0,1-.31.28,1.53,1.53,0,0,1-.59.1h-.73Z"/><path d="M50.25,73.16l-2.46,11h1.83l.45-2.31h1.86l.46,2.31h1.83l-2.46-11Zm.15,7,.6-3.08.59,3.08Z"/><polygon points="59.02 79.04 56.91 73.16 55.2 73.16 55.2 84.18 57.01 84.18 57.01 78.3 59.16 84.18 60.84 84.18 60.84 73.16 59.02 73.16 59.02 79.04"/><polygon points="61.78 74.89 63.56 74.89 63.56 84.18 65.38 84.18 65.38 74.89 67.16 74.89 67.16 73.16 61.78 73.16 61.78 74.89"/><polygon points="68.15 84.18 73.02 84.18 73.02 82.36 69.97 82.36 69.97 79.49 72.63 79.49 72.63 77.76 69.97 77.76 69.97 74.89 73.02 74.89 73.02 73.16 68.15 73.16 68.15 84.18"/><polygon points="79.2 74.89 79.2 73.16 74.33 73.16 74.33 84.18 79.2 84.18 79.2 82.36 76.15 82.36 76.15 79.49 78.81 79.49 78.81 77.76 76.15 77.76 76.15 74.89 79.2 74.89"/></svg>