<svg xmlns="http://www.w3.org/2000/svg" width="152.881" height="152.88" viewBox="0 0 152.881 152.88">
  <path id="Path_28333" data-name="Path 28333" d="M2722.8,2767.173a39.1,39.1,0,1,1,39.1-39.1A39.144,39.144,0,0,1,2722.8,2767.173Zm0-64.862a25.763,25.763,0,1,0,25.763,25.763A25.791,25.791,0,0,0,2722.8,2702.311Zm32.69,102.2h-65.383a43.8,43.8,0,0,1-43.748-43.75v-65.385a43.8,43.8,0,0,1,43.748-43.745H2755.5a43.8,43.8,0,0,1,43.75,43.745v65.385A43.8,43.8,0,0,1,2755.5,2804.514ZM2690.112,2667a28.416,28.416,0,0,0-28.384,28.381v65.385a28.418,28.418,0,0,0,28.384,28.386H2755.5a28.418,28.418,0,0,0,28.385-28.386v-65.385A28.416,28.416,0,0,0,2755.5,2667Zm82,19.856a8.916,8.916,0,1,0-8.917,8.915A8.915,8.915,0,0,0,2772.117,2686.854Z" transform="translate(-2646.364 -2651.634)"/>
</svg>
