<svg id="Group_3192" data-name="Group 3192" xmlns="http://www.w3.org/2000/svg" width="152.881" height="107.018" viewBox="0 0 152.881 107.018">
  <path id="Path_28334" data-name="Path 28334" d="M149.687,16.711A19.148,19.148,0,0,0,136.17,3.2C124.247,0,76.44,0,76.44,0S28.633,0,16.711,3.2A19.148,19.148,0,0,0,3.194,16.711C0,28.633,0,53.509,0,53.509s0,24.876,3.194,36.8a19.146,19.146,0,0,0,13.517,13.516c11.922,3.2,59.729,3.2,59.729,3.2s47.807,0,59.729-3.2a19.146,19.146,0,0,0,13.517-13.516c3.194-11.922,3.194-36.8,3.194-36.8S152.881,28.633,149.687,16.711ZM61.153,76.442V30.576L100.87,53.51Z" transform="translate(0 0)"/>
</svg>
